<svg xmlns="http://www.w3.org/2000/svg" width="32" height="32" fill="none" stroke="currentColor" stroke-width="2" stroke-linecap="round" stroke-linejoin="round"><rect id="backgroundrect" width="100%" height="100%" x="0" y="0" fill="none" stroke="none" style="" class=""/><g class="currentLayer" style=""><title>Layer 1</title><path d="M11.204228520393372,26.0692001581192 c-6.574448943138123,2.088206470012665 -6.574448943138123,-3.4803441166877747 -9.204228520393372,-4.17641294002533 m18.408457040786743,8.35282588005066 v-5.387572533315165 a4.4311784371979,4.69150370997761 0 0 0 -1.2359963981750255,-3.6334791117809857 c4.128754074228169,-0.48724816803850146 8.467890314000499,-2.1438919227738324 8.467890314000499,-9.744963526725769 A7.153000525372875,7.573228877571353 0 0 0 25.66801619529724,6.25908141937947 A6.666491454057848,7.058138107619072 0 0 0 25.549675913684496,1.0107225179672241 S23.99810556183138,0.5234743084397877 20.408457040786743,3.071086261599305 a17.59322552231481,18.62680187183048 0 0 0 -9.204228520393372,0 C7.614579372360424,0.5234743084397877 6.063009647495619,1.0107225179672241 6.063009647495619,1.0107225179672241 A6.666491454057848,7.058138107619072 0 0 0 5.9446693658828735,6.25908141937947 a7.153000525372875,7.573228877571353 0 0 0 -1.9723346829414368,5.262280264602538 c0,7.545386151190769 4.33913623977233,9.202030030392905 8.467890314000499,9.744963526725769 A4.4311784371979,4.69150370997761 0 0 0 11.204228520393372,24.858039237183448 V30.24561309814453 " id="svg_1" class="selected" stroke="#ffffff" stroke-opacity="1"/></g></svg>