<?xml version="1.0" encoding="utf-8"?>
<!-- Generator: Adobe Illustrator 21.0.0, SVG Export Plug-In . SVG Version: 6.00 Build 0)  -->
<svg version="1.1" id="Layer_1" xmlns="http://www.w3.org/2000/svg" xmlns:xlink="http://www.w3.org/1999/xlink" x="0px" y="0px"
	 viewBox="0 0 512 512" style="enable-background:new 0 0 512 512;" xml:space="preserve">
<g>
	<path d="M114.2,0c-5,0-7.5,2.5-7.5,7.5v496.9c0,5,2.5,7.5,7.5,7.5h49c5,0,7.5-2.5,7.5-7.5V401.3l38.6-36.8L321,506.7
		c3,3.5,6.5,5.3,10.6,5.3h67.7c3.5,0,5.6-1,6-3l-1.4-7.7L256.5,318.1l141.4-136.8c2.6-2.7,1.7-10.6-5.4-10.6h-70
		c-3.5,0-7.1,1.8-10.6,5.4L170.7,319.5V7.5c0-5-2.5-7.5-7.5-7.5H114.2z"/>
</g>
</svg>
