<svg version="1.1" xmlns="http://www.w3.org/2000/svg" xmlns:xlink="http://www.w3.org/1999/xlink" style="" xml:space="preserve" width="32" height="32"><rect id="backgroundrect" width="100%" height="100%" x="0" y="0" fill="none" stroke="none" style="" class=""/>

<g class="currentLayer" style=""><title>Layer 1</title><g id="svg_1" class="selected" stroke="#ffffff" stroke-opacity="1" fill="none" opacity="1" stroke-width="2">
	<path d="M7.780942457141919,1.1346463547474173 c-0.2907091720169319,0 -0.436063788401313,0.1449127379471804 -0.436063788401313,0.4347381834656261 v28.802852909884678 c0,0.2898254758943608 0.14535458600846596,0.4347381834656261 0.436063788401313,0.4347381834656261 h2.8489500315703253 c0.2907091720169319,0 0.436063788401313,-0.1449127379471804 0.436063788401313,-0.4347381834656261 V24.396035528852735 l2.2442746718866147,-2.13311534705781 L19.804685165064257,30.505558402701354 c0.1744254910597931,0.20287782097568652 0.3779219479227436,0.3072149582766315 0.6163035029976527,0.3072149582766315 h3.936201965542523 c0.20349642648703536,0 0.32559427022889054,-0.057965086825495504 0.3488509821195862,-0.17389524908551834 l-0.08139856755722263,-0.44633118184577825 L16.054528146383745,19.57334334256302 l8.22125454869365,-7.929623406901101 c0.15116876398113988,-0.156505721139375 0.09884111666320194,-0.614429916553263 -0.3139659446594578,-0.614429916553263 h-4.069928651244368 c-0.20349642648703536,0 -0.4128070765106173,0.1043371600828813 -0.6163035029976527,0.31301144227875 L11.06596110688406,19.65449417934451 V1.5693848723481096 c0,-0.2898254758943608 -0.14535458600846596,-0.4347381834656261 -0.436063788401313,-0.4347381834656261 H7.780942457141919 z" id="svg_2" stroke="#ffffff" stroke-opacity="1" fill="none" fill-opacity="1" opacity="1" stroke-width="2"/>
</g></g></svg>