<svg xmlns="http://www.w3.org/2000/svg" width="32" height="32" fill="none" stroke="currentColor" stroke-width="2" stroke-linecap="round" stroke-linejoin="round"><rect id="backgroundrect" width="100%" height="100%" x="0" y="0" fill="none" stroke="none" style="" class=""/><g class="currentLayer" style=""><title>Layer 1</title><path d="M30.704917907714844,3.0055668354034424 a14.71743608466204,16.077844033229212 0 0 1 -4.2397020611997505,2.256798327683498 a6.04900149059722,6.6081416602140735 0 0 0 -10.61275721457605,4.425094842910767 v1.4750316143035889 A14.39338274380134,15.723836783404295 0 0 1 3.7004470825195312,4.480598449707031 s-5.4008941650390625,13.2752845287323 6.751117706298828,19.175410985946655 a15.716602483826136,17.16936849690569 0 0 1 -9.45156478881836,2.9500632286071777 c12.15201187133789,7.375158071517944 27.004470825195312,0 27.004470825195312,-16.962863564491272 a6.076005935668945,6.63764226436615 0 0 0 -0.10801788088639341,-1.2242762152547328 A10.423725455237218,11.387243752949757 0 0 0 30.704917907714844,3.0055668354034424 z" id="svg_1" class="selected" stroke="#ffffff" stroke-opacity="1"/></g></svg>