<?xml version="1.0" encoding="UTF-8" standalone="no"?>
<!DOCTYPE svg PUBLIC "-//W3C//DTD SVG 1.1//EN"
 "http://www.w3.org/Graphics/SVG/1.1/DTD/svg11.dtd">
<!-- Generated by graphviz version 2.50.0 (20211204.2007)
 -->
<!-- Pages: 1 -->
<svg width="2726pt" height="332pt"
 viewBox="0.00 0.00 2726.00 332.00" xmlns="http://www.w3.org/2000/svg" xmlns:xlink="http://www.w3.org/1999/xlink">
<g id="graph0" class="graph" transform="scale(1 1) rotate(0) translate(4 328)">
<polygon fill="white" stroke="transparent" points="-4,4 -4,-328 2722,-328 2722,4 -4,4"/>
<!-- RaDh1841 -->
<g id="node1" class="node">
<title>RaDh1841</title>
<polygon fill="lightgray" stroke="black" points="1285,-324 1209,-324 1209,-288 1285,-288 1285,-324"/>
<text text-anchor="middle" x="1247" y="-302.3" font-family="Times New Roman,serif" font-size="14.00">Ramji bhai</text>
</g>
<!-- PuDh1925 -->
<g id="node2" class="node">
<title>PuDh1925</title>
<polygon fill="lightgray" stroke="black" points="328,-252 260,-252 260,-216 328,-216 328,-252"/>
<text text-anchor="middle" x="294" y="-230.3" font-family="Times New Roman,serif" font-size="14.00">Puja bhai</text>
</g>
<!-- RaDh1841&#45;&gt;PuDh1925 -->
<g id="edge1" class="edge">
<title>RaDh1841&#45;&gt;PuDh1925</title>
<path fill="none" stroke="black" d="M1208.89,-302.3C1100.4,-294.61 780.56,-271.83 515,-252 448.8,-247.06 371.47,-241.06 328.07,-237.67"/>
</g>
<!-- KhDh1926 -->
<g id="node3" class="node">
<title>KhDh1926</title>
<polygon fill="lightgray" stroke="black" points="604,-252 524,-252 524,-216 604,-216 604,-252"/>
<text text-anchor="middle" x="564" y="-230.3" font-family="Times New Roman,serif" font-size="14.00">Khimji bhai</text>
</g>
<!-- RaDh1841&#45;&gt;KhDh1926 -->
<g id="edge2" class="edge">
<title>RaDh1841&#45;&gt;KhDh1926</title>
<path fill="none" stroke="black" d="M1208.82,-301.09C1089.7,-288.88 725.66,-251.57 604.04,-239.1"/>
</g>
<!-- PaDh1927 -->
<g id="node4" class="node">
<title>PaDh1927</title>
<polygon fill="lightgray" stroke="black" points="1130.5,-252 1023.5,-252 1023.5,-216 1130.5,-216 1130.5,-252"/>
<text text-anchor="middle" x="1077" y="-230.3" font-family="Times New Roman,serif" font-size="14.00">Parshottam bhai</text>
</g>
<!-- RaDh1841&#45;&gt;PaDh1927 -->
<g id="edge3" class="edge">
<title>RaDh1841&#45;&gt;PaDh1927</title>
<path fill="none" stroke="black" d="M1208.85,-289.29C1181.93,-278.21 1145.89,-263.37 1118.29,-252"/>
</g>
<!-- HaDh1928 -->
<g id="node5" class="node">
<title>HaDh1928</title>
<polygon fill="lightgray" stroke="black" points="1283.5,-252 1210.5,-252 1210.5,-216 1283.5,-216 1283.5,-252"/>
<text text-anchor="middle" x="1247" y="-230.3" font-family="Times New Roman,serif" font-size="14.00">Hada bhai</text>
</g>
<!-- RaDh1841&#45;&gt;HaDh1928 -->
<g id="edge4" class="edge">
<title>RaDh1841&#45;&gt;HaDh1928</title>
<path fill="none" stroke="black" d="M1247,-287.7C1247,-276.85 1247,-262.92 1247,-252.1"/>
</g>
<!-- MoDh1929 -->
<g id="node6" class="node">
<title>MoDh1929</title>
<polygon fill="lightgray" stroke="black" points="1400.5,-252 1317.5,-252 1317.5,-216 1400.5,-216 1400.5,-252"/>
<text text-anchor="middle" x="1359" y="-230.3" font-family="Times New Roman,serif" font-size="14.00">Mohan bhai</text>
</g>
<!-- RaDh1841&#45;&gt;MoDh1929 -->
<g id="edge5" class="edge">
<title>RaDh1841&#45;&gt;MoDh1929</title>
<path fill="none" stroke="black" d="M1274.4,-287.88C1291.75,-277.03 1314.12,-263.05 1331.5,-252.19"/>
</g>
<!-- JeDh1930 -->
<g id="node7" class="node">
<title>JeDh1930</title>
<polygon fill="lightgray" stroke="black" points="1763.5,-252 1682.5,-252 1682.5,-216 1763.5,-216 1763.5,-252"/>
<text text-anchor="middle" x="1723" y="-230.3" font-family="Times New Roman,serif" font-size="14.00">Jeevraj bhai</text>
</g>
<!-- RaDh1841&#45;&gt;JeDh1930 -->
<g id="edge6" class="edge">
<title>RaDh1841&#45;&gt;JeDh1930</title>
<path fill="none" stroke="black" d="M1285.15,-299.39C1373.5,-286.4 1591.54,-254.33 1682.32,-240.98"/>
</g>
<!-- MeDh1931 -->
<g id="node8" class="node">
<title>MeDh1931</title>
<polygon fill="white" stroke="black" points="2281.5,-252 2200.5,-252 2200.5,-216 2281.5,-216 2281.5,-252"/>
<text text-anchor="middle" x="2241" y="-230.3" font-family="Times New Roman,serif" font-size="14.00">Meghji bhai</text>
</g>
<!-- RaDh1841&#45;&gt;MeDh1931 -->
<g id="edge7" class="edge">
<title>RaDh1841&#45;&gt;MeDh1931</title>
<path fill="none" stroke="black" d="M1285.05,-302.32C1442.01,-291.27 2038.44,-249.26 2200.28,-237.87"/>
</g>
<!-- RaDh1955 -->
<g id="node9" class="node">
<title>RaDh1955</title>
<polygon fill="white" stroke="black" points="173,-180 101,-180 101,-144 173,-144 173,-180"/>
<text text-anchor="middle" x="137" y="-158.3" font-family="Times New Roman,serif" font-size="14.00">Ravji bhai</text>
</g>
<!-- PuDh1925&#45;&gt;RaDh1955 -->
<g id="edge8" class="edge">
<title>PuDh1925&#45;&gt;RaDh1955</title>
<path fill="none" stroke="black" d="M259.93,-217.81C234.32,-206.39 199.3,-190.78 173.19,-179.13"/>
</g>
<!-- MaDh1955 -->
<g id="node10" class="node">
<title>MaDh1955</title>
<polygon fill="white" stroke="black" points="361.5,-180 278.5,-180 278.5,-144 361.5,-144 361.5,-180"/>
<text text-anchor="middle" x="320" y="-158.3" font-family="Times New Roman,serif" font-size="14.00">Madhu bhai</text>
</g>
<!-- KhDh1926&#45;&gt;MaDh1955 -->
<g id="edge9" class="edge">
<title>KhDh1926&#45;&gt;MaDh1955</title>
<path fill="none" stroke="black" d="M523.96,-221.96C485.85,-211.4 426.93,-194.91 376,-180 371.32,-178.63 366.43,-177.18 361.56,-175.72"/>
</g>
<!-- DiDh1955 -->
<g id="node11" class="node">
<title>DiDh1955</title>
<polygon fill="lightgray" stroke="black" points="455,-180 385,-180 385,-144 455,-144 455,-180"/>
<text text-anchor="middle" x="420" y="-158.3" font-family="Times New Roman,serif" font-size="14.00">Dilip bhai</text>
</g>
<!-- KhDh1926&#45;&gt;DiDh1955 -->
<g id="edge10" class="edge">
<title>KhDh1926&#45;&gt;DiDh1955</title>
<path fill="none" stroke="black" d="M528.77,-215.88C506.46,-205.03 477.7,-191.05 455.36,-180.19"/>
</g>
<!-- ViDh1955 -->
<g id="node12" class="node">
<title>ViDh1955</title>
<polygon fill="white" stroke="black" points="553,-180 477,-180 477,-144 553,-144 553,-180"/>
<text text-anchor="middle" x="515" y="-158.3" font-family="Times New Roman,serif" font-size="14.00">Vithal bhai</text>
</g>
<!-- KhDh1926&#45;&gt;ViDh1955 -->
<g id="edge11" class="edge">
<title>KhDh1926&#45;&gt;ViDh1955</title>
<path fill="none" stroke="black" d="M551.89,-215.7C544.29,-204.85 534.54,-190.92 526.97,-180.1"/>
</g>
<!-- HiDh1955 -->
<g id="node13" class="node">
<title>HiDh1955</title>
<polygon fill="lightgray" stroke="black" points="654.5,-180 571.5,-180 571.5,-144 654.5,-144 654.5,-180"/>
<text text-anchor="middle" x="613" y="-158.3" font-family="Times New Roman,serif" font-size="14.00">Himant bhai</text>
</g>
<!-- KhDh1926&#45;&gt;HiDh1955 -->
<g id="edge12" class="edge">
<title>KhDh1926&#45;&gt;HiDh1955</title>
<path fill="none" stroke="black" d="M576.11,-215.7C583.71,-204.85 593.46,-190.92 601.03,-180.1"/>
</g>
<!-- PrDh1955 -->
<g id="node14" class="node">
<title>PrDh1955</title>
<polygon fill="white" stroke="black" points="751.5,-180 672.5,-180 672.5,-144 751.5,-144 751.5,-180"/>
<text text-anchor="middle" x="712" y="-158.3" font-family="Times New Roman,serif" font-size="14.00">Pravin bhai</text>
</g>
<!-- KhDh1926&#45;&gt;PrDh1955 -->
<g id="edge13" class="edge">
<title>KhDh1926&#45;&gt;PrDh1955</title>
<path fill="none" stroke="black" d="M600.2,-215.88C623.22,-204.99 652.92,-190.95 675.91,-180.07"/>
</g>
<!-- VaDh1956 -->
<g id="node15" class="node">
<title>VaDh1956</title>
<polygon fill="lightgray" stroke="black" points="955.5,-180 872.5,-180 872.5,-144 955.5,-144 955.5,-180"/>
<text text-anchor="middle" x="914" y="-158.3" font-family="Times New Roman,serif" font-size="14.00">Valabh bhai</text>
</g>
<!-- PaDh1927&#45;&gt;VaDh1956 -->
<g id="edge14" class="edge">
<title>PaDh1927&#45;&gt;VaDh1956</title>
<path fill="none" stroke="black" d="M1037.13,-215.88C1011.77,-204.99 979.07,-190.95 953.74,-180.07"/>
</g>
<!-- BhDh1956 -->
<g id="node16" class="node">
<title>BhDh1956</title>
<polygon fill="lightgray" stroke="black" points="1097.5,-180 994.5,-180 994.5,-144 1097.5,-144 1097.5,-180"/>
<text text-anchor="middle" x="1046" y="-158.3" font-family="Times New Roman,serif" font-size="14.00">Bhagwanbhai P</text>
</g>
<!-- PaDh1927&#45;&gt;BhDh1956 -->
<g id="edge15" class="edge">
<title>PaDh1927&#45;&gt;BhDh1956</title>
<path fill="none" stroke="black" d="M1069.34,-215.7C1064.53,-204.85 1058.36,-190.92 1053.57,-180.1"/>
</g>
<!-- DhDh1956 -->
<g id="node17" class="node">
<title>DhDh1956</title>
<polygon fill="lightgray" stroke="black" points="1218.5,-180 1115.5,-180 1115.5,-144 1218.5,-144 1218.5,-180"/>
<text text-anchor="middle" x="1167" y="-158.3" font-family="Times New Roman,serif" font-size="14.00">Dharamshi bhai</text>
</g>
<!-- PaDh1927&#45;&gt;DhDh1956 -->
<g id="edge16" class="edge">
<title>PaDh1927&#45;&gt;DhDh1956</title>
<path fill="none" stroke="black" d="M1099.25,-215.7C1113.2,-204.85 1131.11,-190.92 1145.01,-180.1"/>
</g>
<!-- MaDh1957 -->
<g id="node18" class="node">
<title>MaDh1957</title>
<polygon fill="white" stroke="black" points="1319.5,-180 1236.5,-180 1236.5,-144 1319.5,-144 1319.5,-180"/>
<text text-anchor="middle" x="1278" y="-158.3" font-family="Times New Roman,serif" font-size="14.00">Madhu bhai</text>
</g>
<!-- MoDh1929&#45;&gt;MaDh1957 -->
<g id="edge17" class="edge">
<title>MoDh1929&#45;&gt;MaDh1957</title>
<path fill="none" stroke="black" d="M1338.98,-215.7C1326.42,-204.85 1310.3,-190.92 1297.79,-180.1"/>
</g>
<!-- NaDh1957 -->
<g id="node19" class="node">
<title>NaDh1957</title>
<polygon fill="white" stroke="black" points="1410,-180 1338,-180 1338,-144 1410,-144 1410,-180"/>
<text text-anchor="middle" x="1374" y="-158.3" font-family="Times New Roman,serif" font-size="14.00">Nanji bhai</text>
</g>
<!-- MoDh1929&#45;&gt;NaDh1957 -->
<g id="edge18" class="edge">
<title>MoDh1929&#45;&gt;NaDh1957</title>
<path fill="none" stroke="black" d="M1362.71,-215.7C1365.03,-204.85 1368.02,-190.92 1370.33,-180.1"/>
</g>
<!-- MaDh1958 -->
<g id="node20" class="node">
<title>MaDh1958</title>
<polygon fill="white" stroke="black" points="1523.5,-180 1428.5,-180 1428.5,-144 1523.5,-144 1523.5,-180"/>
<text text-anchor="middle" x="1476" y="-158.3" font-family="Times New Roman,serif" font-size="14.00">Mansukh bhai</text>
</g>
<!-- MoDh1929&#45;&gt;MaDh1958 -->
<g id="edge19" class="edge">
<title>MoDh1929&#45;&gt;MaDh1958</title>
<path fill="none" stroke="black" d="M1387.62,-215.88C1405.75,-205.03 1429.12,-191.05 1447.27,-180.19"/>
</g>
<!-- HaDh1959 -->
<g id="node21" class="node">
<title>HaDh1959</title>
<polygon fill="lightgray" stroke="black" points="1612,-180 1542,-180 1542,-144 1612,-144 1612,-180"/>
<text text-anchor="middle" x="1577" y="-158.3" font-family="Times New Roman,serif" font-size="14.00">Harji bhai</text>
</g>
<!-- JeDh1930&#45;&gt;HaDh1959 -->
<g id="edge20" class="edge">
<title>JeDh1930&#45;&gt;HaDh1959</title>
<path fill="none" stroke="black" d="M1687.28,-215.88C1664.41,-204.91 1634.85,-190.74 1612.09,-179.83"/>
</g>
<!-- ChDh1959 -->
<g id="node22" class="node">
<title>ChDh1959</title>
<polygon fill="lightgray" stroke="black" points="1716,-180 1630,-180 1630,-144 1716,-144 1716,-180"/>
<text text-anchor="middle" x="1673" y="-158.3" font-family="Times New Roman,serif" font-size="14.00">Chagan bhai</text>
</g>
<!-- JeDh1930&#45;&gt;ChDh1959 -->
<g id="edge21" class="edge">
<title>JeDh1930&#45;&gt;ChDh1959</title>
<path fill="none" stroke="black" d="M1710.64,-215.7C1702.89,-204.85 1692.94,-190.92 1685.22,-180.1"/>
</g>
<!-- BhDh1959 -->
<g id="node23" class="node">
<title>BhDh1959</title>
<polygon fill="lightgray" stroke="black" points="1812,-180 1734,-180 1734,-144 1812,-144 1812,-180"/>
<text text-anchor="middle" x="1773" y="-158.3" font-family="Times New Roman,serif" font-size="14.00">Bhanji bhai</text>
</g>
<!-- JeDh1930&#45;&gt;BhDh1959 -->
<g id="edge22" class="edge">
<title>JeDh1930&#45;&gt;BhDh1959</title>
<path fill="none" stroke="black" d="M1735.36,-215.7C1743.11,-204.85 1753.06,-190.92 1760.78,-180.1"/>
</g>
<!-- JaDh1959 -->
<g id="node24" class="node">
<title>JaDh1959</title>
<polygon fill="white" stroke="black" points="1915.5,-180 1830.5,-180 1830.5,-144 1915.5,-144 1915.5,-180"/>
<text text-anchor="middle" x="1873" y="-158.3" font-family="Times New Roman,serif" font-size="14.00">Jagdish bhai</text>
</g>
<!-- JeDh1930&#45;&gt;JaDh1959 -->
<g id="edge23" class="edge">
<title>JeDh1930&#45;&gt;JaDh1959</title>
<path fill="none" stroke="black" d="M1759.69,-215.88C1783.03,-204.99 1813.12,-190.95 1836.43,-180.07"/>
</g>
<!-- AmDh1959 -->
<g id="node25" class="node">
<title>AmDh1959</title>
<polygon fill="white" stroke="black" points="2024,-180 1934,-180 1934,-144 2024,-144 2024,-180"/>
<text text-anchor="middle" x="1979" y="-158.3" font-family="Times New Roman,serif" font-size="14.00">Amarshi bhai</text>
</g>
<!-- JeDh1930&#45;&gt;AmDh1959 -->
<g id="edge24" class="edge">
<title>JeDh1930&#45;&gt;AmDh1959</title>
<path fill="none" stroke="black" d="M1763.56,-222.84C1804.25,-212.52 1868.66,-195.84 1924,-180 1927.17,-179.09 1930.44,-178.14 1933.72,-177.16"/>
</g>
<!-- AnDh1960 -->
<g id="node26" class="node">
<title>AnDh1960</title>
<polygon fill="white" stroke="black" points="2122,-180 2042,-180 2042,-144 2122,-144 2122,-180"/>
<text text-anchor="middle" x="2082" y="-158.3" font-family="Times New Roman,serif" font-size="14.00">Anand bhai</text>
</g>
<!-- MeDh1931&#45;&gt;AnDh1960 -->
<g id="edge25" class="edge">
<title>MeDh1931&#45;&gt;AnDh1960</title>
<path fill="none" stroke="black" d="M2202.1,-215.88C2177.37,-204.99 2145.48,-190.95 2120.77,-180.07"/>
</g>
<!-- KaDh1960 -->
<g id="node27" class="node">
<title>KaDh1960</title>
<polygon fill="white" stroke="black" points="2236,-180 2140,-180 2140,-144 2236,-144 2236,-180"/>
<text text-anchor="middle" x="2188" y="-158.3" font-family="Times New Roman,serif" font-size="14.00">Karamshi bhai</text>
</g>
<!-- MeDh1931&#45;&gt;KaDh1960 -->
<g id="edge26" class="edge">
<title>MeDh1931&#45;&gt;KaDh1960</title>
<path fill="none" stroke="black" d="M2227.9,-215.7C2219.68,-204.85 2209.14,-190.92 2200.95,-180.1"/>
</g>
<!-- BhDh1958 -->
<g id="node28" class="node">
<title>BhDh1958</title>
<polygon fill="white" stroke="black" points="2333.5,-180 2254.5,-180 2254.5,-144 2333.5,-144 2333.5,-180"/>
<text text-anchor="middle" x="2294" y="-158.3" font-family="Times New Roman,serif" font-size="14.00">Bhimji bhai</text>
</g>
<!-- MeDh1931&#45;&gt;BhDh1958 -->
<g id="edge27" class="edge">
<title>MeDh1931&#45;&gt;BhDh1958</title>
<path fill="none" stroke="black" d="M2254.1,-215.7C2262.32,-204.85 2272.86,-190.92 2281.05,-180.1"/>
</g>
<!-- BhDh1960 -->
<g id="node29" class="node">
<title>BhDh1960</title>
<polygon fill="white" stroke="black" points="2450.5,-180 2355.5,-180 2355.5,-144 2450.5,-144 2450.5,-180"/>
<text text-anchor="middle" x="2403" y="-158.3" font-family="Times New Roman,serif" font-size="14.00">Bhagwan bhai</text>
</g>
<!-- MeDh1931&#45;&gt;BhDh1960 -->
<g id="edge28" class="edge">
<title>MeDh1931&#45;&gt;BhDh1960</title>
<path fill="none" stroke="black" d="M2280.63,-215.88C2305.83,-204.99 2338.33,-190.95 2363.5,-180.07"/>
</g>
<!-- LaDh1960 -->
<g id="node30" class="node">
<title>LaDh1960</title>
<polygon fill="white" stroke="black" points="2627,-180 2539,-180 2539,-144 2627,-144 2627,-180"/>
<text text-anchor="middle" x="2583" y="-158.3" font-family="Times New Roman,serif" font-size="14.00">Laxman bhai</text>
</g>
<!-- MeDh1931&#45;&gt;LaDh1960 -->
<g id="edge29" class="edge">
<title>MeDh1931&#45;&gt;LaDh1960</title>
<path fill="none" stroke="black" d="M2281.57,-224.7C2346.25,-211.46 2472.19,-185.68 2538.97,-172.01"/>
</g>
<!-- JaDh1965 -->
<g id="node31" class="node">
<title>JaDh1965</title>
<polygon fill="white" stroke="black" points="54,-108 0,-108 0,-72 54,-72 54,-108"/>
<text text-anchor="middle" x="27" y="-86.3" font-family="Times New Roman,serif" font-size="14.00">Jayanti</text>
</g>
<!-- RaDh1955&#45;&gt;JaDh1965 -->
<g id="edge30" class="edge">
<title>RaDh1955&#45;&gt;JaDh1965</title>
<path fill="none" stroke="black" d="M110.09,-143.88C93.05,-133.03 71.08,-119.05 54.01,-108.19"/>
</g>
<!-- BeDh1965 -->
<g id="node32" class="node">
<title>BeDh1965</title>
<polygon fill="white" stroke="black" points="128,-108 72,-108 72,-72 128,-72 128,-108"/>
<text text-anchor="middle" x="100" y="-86.3" font-family="Times New Roman,serif" font-size="14.00">Bechar</text>
</g>
<!-- RaDh1955&#45;&gt;BeDh1965 -->
<g id="edge31" class="edge">
<title>RaDh1955&#45;&gt;BeDh1965</title>
<path fill="none" stroke="black" d="M127.85,-143.7C122.12,-132.85 114.76,-118.92 109.04,-108.1"/>
</g>
<!-- JaDh1964 -->
<g id="node33" class="node">
<title>JaDh1964</title>
<polygon fill="white" stroke="black" points="200,-108 146,-108 146,-72 200,-72 200,-108"/>
<text text-anchor="middle" x="173" y="-86.3" font-family="Times New Roman,serif" font-size="14.00">Javair</text>
</g>
<!-- RaDh1955&#45;&gt;JaDh1964 -->
<g id="edge32" class="edge">
<title>RaDh1955&#45;&gt;JaDh1964</title>
<path fill="none" stroke="black" d="M145.9,-143.7C151.48,-132.85 158.64,-118.92 164.2,-108.1"/>
</g>
<!-- NiDh1965 -->
<g id="node34" class="node">
<title>NiDh1965</title>
<polygon fill="white" stroke="black" points="272,-108 218,-108 218,-72 272,-72 272,-108"/>
<text text-anchor="middle" x="245" y="-86.3" font-family="Times New Roman,serif" font-size="14.00">Nitin</text>
</g>
<!-- MaDh1955&#45;&gt;NiDh1965 -->
<g id="edge33" class="edge">
<title>MaDh1955&#45;&gt;NiDh1965</title>
<path fill="none" stroke="black" d="M301.46,-143.7C289.84,-132.85 274.91,-118.92 263.33,-108.1"/>
</g>
<!-- MaDh1966 -->
<g id="node35" class="node">
<title>MaDh1966</title>
<polygon fill="white" stroke="black" points="350,-108 290,-108 290,-72 350,-72 350,-108"/>
<text text-anchor="middle" x="320" y="-86.3" font-family="Times New Roman,serif" font-size="14.00">Mahesh</text>
</g>
<!-- MaDh1955&#45;&gt;MaDh1966 -->
<g id="edge34" class="edge">
<title>MaDh1955&#45;&gt;MaDh1966</title>
<path fill="none" stroke="black" d="M320,-143.7C320,-132.85 320,-118.92 320,-108.1"/>
</g>
<!-- ViDh1967 -->
<g id="node36" class="node">
<title>ViDh1967</title>
<polygon fill="white" stroke="black" points="425.5,-108 368.5,-108 368.5,-72 425.5,-72 425.5,-108"/>
<text text-anchor="middle" x="397" y="-86.3" font-family="Times New Roman,serif" font-size="14.00">Vikram</text>
</g>
<!-- DiDh1955&#45;&gt;ViDh1967 -->
<g id="edge35" class="edge">
<title>DiDh1955&#45;&gt;ViDh1967</title>
<path fill="none" stroke="black" d="M414.31,-143.7C410.75,-132.85 406.17,-118.92 402.62,-108.1"/>
</g>
<!-- ChDh1968 -->
<g id="node37" class="node">
<title>ChDh1968</title>
<polygon fill="white" stroke="black" points="502.5,-108 443.5,-108 443.5,-72 502.5,-72 502.5,-108"/>
<text text-anchor="middle" x="473" y="-86.3" font-family="Times New Roman,serif" font-size="14.00">Chintan</text>
</g>
<!-- ViDh1955&#45;&gt;ChDh1968 -->
<g id="edge36" class="edge">
<title>ViDh1955&#45;&gt;ChDh1968</title>
<path fill="none" stroke="black" d="M504.62,-143.7C498.11,-132.85 489.75,-118.92 483.26,-108.1"/>
</g>
<!-- HaDh1969 -->
<g id="node38" class="node">
<title>HaDh1969</title>
<polygon fill="white" stroke="black" points="577,-108 521,-108 521,-72 577,-72 577,-108"/>
<text text-anchor="middle" x="549" y="-86.3" font-family="Times New Roman,serif" font-size="14.00">Harshil</text>
</g>
<!-- ViDh1955&#45;&gt;HaDh1969 -->
<g id="edge37" class="edge">
<title>ViDh1955&#45;&gt;HaDh1969</title>
<path fill="none" stroke="black" d="M523.4,-143.7C528.67,-132.85 535.44,-118.92 540.69,-108.1"/>
</g>
<!-- ViDh1970 -->
<g id="node39" class="node">
<title>ViDh1970</title>
<polygon fill="white" stroke="black" points="649,-108 595,-108 595,-72 649,-72 649,-108"/>
<text text-anchor="middle" x="622" y="-86.3" font-family="Times New Roman,serif" font-size="14.00">Vijay</text>
</g>
<!-- HiDh1955&#45;&gt;ViDh1970 -->
<g id="edge38" class="edge">
<title>HiDh1955&#45;&gt;ViDh1970</title>
<path fill="none" stroke="black" d="M615.22,-143.7C616.62,-132.85 618.41,-118.92 619.8,-108.1"/>
</g>
<!-- JuDh1971 -->
<g id="node40" class="node">
<title>JuDh1971</title>
<polygon fill="white" stroke="black" points="721,-108 667,-108 667,-72 721,-72 721,-108"/>
<text text-anchor="middle" x="694" y="-86.3" font-family="Times New Roman,serif" font-size="14.00">Jugal</text>
</g>
<!-- PrDh1955&#45;&gt;JuDh1971 -->
<g id="edge39" class="edge">
<title>PrDh1955&#45;&gt;JuDh1971</title>
<path fill="none" stroke="black" d="M707.55,-143.7C704.76,-132.85 701.18,-118.92 698.4,-108.1"/>
</g>
<!-- PrDh1972 -->
<g id="node41" class="node">
<title>PrDh1972</title>
<polygon fill="white" stroke="black" points="793,-108 739,-108 739,-72 793,-72 793,-108"/>
<text text-anchor="middle" x="766" y="-86.3" font-family="Times New Roman,serif" font-size="14.00">Pratik</text>
</g>
<!-- PrDh1955&#45;&gt;PrDh1972 -->
<g id="edge40" class="edge">
<title>PrDh1955&#45;&gt;PrDh1972</title>
<path fill="none" stroke="black" d="M725.35,-143.7C733.72,-132.85 744.46,-118.92 752.81,-108.1"/>
</g>
<!-- BhDh1972 -->
<g id="node42" class="node">
<title>BhDh1972</title>
<polygon fill="white" stroke="black" points="865,-108 811,-108 811,-72 865,-72 865,-108"/>
<text text-anchor="middle" x="838" y="-86.3" font-family="Times New Roman,serif" font-size="14.00">Bharat</text>
</g>
<!-- VaDh1956&#45;&gt;BhDh1972 -->
<g id="edge41" class="edge">
<title>VaDh1956&#45;&gt;BhDh1972</title>
<path fill="none" stroke="black" d="M895.21,-143.7C883.43,-132.85 868.31,-118.92 856.57,-108.1"/>
</g>
<!-- ShDh1972 -->
<g id="node43" class="node">
<title>ShDh1972</title>
<polygon fill="white" stroke="black" points="945,-108 883,-108 883,-72 945,-72 945,-108"/>
<text text-anchor="middle" x="914" y="-86.3" font-family="Times New Roman,serif" font-size="14.00">Shailesh</text>
</g>
<!-- VaDh1956&#45;&gt;ShDh1972 -->
<g id="edge42" class="edge">
<title>VaDh1956&#45;&gt;ShDh1972</title>
<path fill="none" stroke="black" d="M914,-143.7C914,-132.85 914,-118.92 914,-108.1"/>
</g>
<!-- MuDh1972 -->
<g id="node44" class="node">
<title>MuDh1972</title>
<polygon fill="white" stroke="black" points="1024.5,-108 963.5,-108 963.5,-72 1024.5,-72 1024.5,-108"/>
<text text-anchor="middle" x="994" y="-86.3" font-family="Times New Roman,serif" font-size="14.00">Mukesh</text>
</g>
<!-- BhDh1956&#45;&gt;MuDh1972 -->
<g id="edge43" class="edge">
<title>BhDh1956&#45;&gt;MuDh1972</title>
<path fill="none" stroke="black" d="M1033.15,-143.7C1025.09,-132.85 1014.74,-118.92 1006.71,-108.1"/>
</g>
<!-- MaDh1972 -->
<g id="node45" class="node">
<title>MaDh1972</title>
<polygon fill="white" stroke="black" points="1099.5,-108 1042.5,-108 1042.5,-72 1099.5,-72 1099.5,-108"/>
<text text-anchor="middle" x="1071" y="-86.3" font-family="Times New Roman,serif" font-size="14.00">Manish</text>
</g>
<!-- BhDh1956&#45;&gt;MaDh1972 -->
<g id="edge44" class="edge">
<title>BhDh1956&#45;&gt;MaDh1972</title>
<path fill="none" stroke="black" d="M1052.18,-143.7C1056.05,-132.85 1061.03,-118.92 1064.89,-108.1"/>
</g>
<!-- AsDh1972 -->
<g id="node46" class="node">
<title>AsDh1972</title>
<polygon fill="white" stroke="black" points="1176.5,-108 1117.5,-108 1117.5,-72 1176.5,-72 1176.5,-108"/>
<text text-anchor="middle" x="1147" y="-86.3" font-family="Times New Roman,serif" font-size="14.00">Ashwin</text>
</g>
<!-- BhDh1956&#45;&gt;AsDh1972 -->
<g id="edge45" class="edge">
<title>BhDh1956&#45;&gt;AsDh1972</title>
<path fill="none" stroke="black" d="M1070.71,-143.88C1086.36,-133.03 1106.53,-119.05 1122.2,-108.19"/>
</g>
<!-- NiDh1972 -->
<g id="node47" class="node">
<title>NiDh1972</title>
<polygon fill="white" stroke="black" points="1249,-108 1195,-108 1195,-72 1249,-72 1249,-108"/>
<text text-anchor="middle" x="1222" y="-86.3" font-family="Times New Roman,serif" font-size="14.00">Nipul</text>
</g>
<!-- DhDh1956&#45;&gt;NiDh1972 -->
<g id="edge46" class="edge">
<title>DhDh1956&#45;&gt;NiDh1972</title>
<path fill="none" stroke="black" d="M1180.6,-143.7C1189.12,-132.85 1200.07,-118.92 1208.56,-108.1"/>
</g>
<!-- PrDh1973 -->
<g id="node48" class="node">
<title>PrDh1973</title>
<polygon fill="white" stroke="black" points="1332.5,-108 1267.5,-108 1267.5,-72 1332.5,-72 1332.5,-108"/>
<text text-anchor="middle" x="1300" y="-86.3" font-family="Times New Roman,serif" font-size="14.00">Prashant</text>
</g>
<!-- MaDh1957&#45;&gt;PrDh1973 -->
<g id="edge47" class="edge">
<title>MaDh1957&#45;&gt;PrDh1973</title>
<path fill="none" stroke="black" d="M1283.44,-143.7C1286.85,-132.85 1291.23,-118.92 1294.62,-108.1"/>
</g>
<!-- GhDh1980 -->
<g id="node49" class="node">
<title>GhDh1980</title>
<polygon fill="white" stroke="black" points="2118.5,-108 2035.5,-108 2035.5,-72 2118.5,-72 2118.5,-108"/>
<text text-anchor="middle" x="2077" y="-86.3" font-family="Times New Roman,serif" font-size="14.00">Ghanshyam</text>
</g>
<!-- AnDh1960&#45;&gt;GhDh1980 -->
<g id="edge48" class="edge">
<title>AnDh1960&#45;&gt;GhDh1980</title>
<path fill="none" stroke="black" d="M2080.76,-143.7C2079.99,-132.85 2078.99,-118.92 2078.22,-108.1"/>
</g>
<!-- ChDh1980 -->
<g id="node50" class="node">
<title>ChDh1980</title>
<polygon fill="white" stroke="black" points="2213.5,-108 2136.5,-108 2136.5,-72 2213.5,-72 2213.5,-108"/>
<text text-anchor="middle" x="2175" y="-86.3" font-family="Times New Roman,serif" font-size="14.00">Chandresh</text>
</g>
<!-- KaDh1960&#45;&gt;ChDh1980 -->
<g id="edge49" class="edge">
<title>KaDh1960&#45;&gt;ChDh1980</title>
<path fill="none" stroke="black" d="M2184.79,-143.7C2182.77,-132.85 2180.18,-118.92 2178.18,-108.1"/>
</g>
<!-- JaDh1980 -->
<g id="node51" class="node">
<title>JaDh1980</title>
<polygon fill="white" stroke="black" points="2286,-108 2232,-108 2232,-72 2286,-72 2286,-108"/>
<text text-anchor="middle" x="2259" y="-86.3" font-family="Times New Roman,serif" font-size="14.00">Jayesh</text>
</g>
<!-- BhDh1958&#45;&gt;JaDh1980 -->
<g id="edge50" class="edge">
<title>BhDh1958&#45;&gt;JaDh1980</title>
<path fill="none" stroke="black" d="M2285.35,-143.7C2279.92,-132.85 2272.96,-118.92 2267.55,-108.1"/>
</g>
<!-- ViDh1980 -->
<g id="node52" class="node">
<title>ViDh1980</title>
<polygon fill="white" stroke="black" points="2358,-108 2304,-108 2304,-72 2358,-72 2358,-108"/>
<text text-anchor="middle" x="2331" y="-86.3" font-family="Times New Roman,serif" font-size="14.00">Vishal</text>
</g>
<!-- BhDh1958&#45;&gt;ViDh1980 -->
<g id="edge51" class="edge">
<title>BhDh1958&#45;&gt;ViDh1980</title>
<path fill="none" stroke="black" d="M2303.15,-143.7C2308.88,-132.85 2316.24,-118.92 2321.96,-108.1"/>
</g>
<!-- PaDh1980 -->
<g id="node53" class="node">
<title>PaDh1980</title>
<polygon fill="lightgray" stroke="black" points="2430,-108 2376,-108 2376,-72 2430,-72 2430,-108"/>
<text text-anchor="middle" x="2403" y="-86.3" font-family="Times New Roman,serif" font-size="14.00">Parth</text>
</g>
<!-- BhDh1960&#45;&gt;PaDh1980 -->
<g id="edge52" class="edge">
<title>BhDh1960&#45;&gt;PaDh1980</title>
<path fill="none" stroke="black" d="M2403,-143.7C2403,-132.85 2403,-118.92 2403,-108.1"/>
</g>
<!-- AmDh1996 -->
<g id="node54" class="node">
<title>AmDh1996</title>
<polygon fill="white" stroke="black" points="2502,-108 2448,-108 2448,-72 2502,-72 2502,-108"/>
<text text-anchor="middle" x="2475" y="-86.3" font-family="Times New Roman,serif" font-size="14.00">Amish</text>
</g>
<!-- BhDh1960&#45;&gt;AmDh1996 -->
<g id="edge53" class="edge">
<title>BhDh1960&#45;&gt;AmDh1996</title>
<path fill="none" stroke="black" d="M2420.8,-143.7C2431.96,-132.85 2446.29,-118.92 2457.41,-108.1"/>
</g>
<!-- RaDh1980 -->
<g id="node55" class="node">
<title>RaDh1980</title>
<polygon fill="white" stroke="black" points="2574,-108 2520,-108 2520,-72 2574,-72 2574,-108"/>
<text text-anchor="middle" x="2547" y="-86.3" font-family="Times New Roman,serif" font-size="14.00">Rajesh</text>
</g>
<!-- LaDh1960&#45;&gt;RaDh1980 -->
<g id="edge54" class="edge">
<title>LaDh1960&#45;&gt;RaDh1980</title>
<path fill="none" stroke="black" d="M2574.1,-143.7C2568.52,-132.85 2561.36,-118.92 2555.8,-108.1"/>
</g>
<!-- NiDh1980 -->
<g id="node56" class="node">
<title>NiDh1980</title>
<polygon fill="white" stroke="black" points="2646,-108 2592,-108 2592,-72 2646,-72 2646,-108"/>
<text text-anchor="middle" x="2619" y="-86.3" font-family="Times New Roman,serif" font-size="14.00">Niraj</text>
</g>
<!-- LaDh1960&#45;&gt;NiDh1980 -->
<g id="edge55" class="edge">
<title>LaDh1960&#45;&gt;NiDh1980</title>
<path fill="none" stroke="black" d="M2591.9,-143.7C2597.48,-132.85 2604.64,-118.92 2610.2,-108.1"/>
</g>
<!-- HaDh1980 -->
<g id="node57" class="node">
<title>HaDh1980</title>
<polygon fill="white" stroke="black" points="2718,-108 2664,-108 2664,-72 2718,-72 2718,-108"/>
<text text-anchor="middle" x="2691" y="-86.3" font-family="Times New Roman,serif" font-size="14.00">Harsh</text>
</g>
<!-- LaDh1960&#45;&gt;HaDh1980 -->
<g id="edge56" class="edge">
<title>LaDh1960&#45;&gt;HaDh1980</title>
<path fill="none" stroke="black" d="M2609.42,-143.88C2626.16,-133.03 2647.72,-119.05 2664.48,-108.19"/>
</g>
<!-- ShDh1960 -->
<g id="node58" class="node">
<title>ShDh1960</title>
<polygon fill="white" stroke="black" points="988.5,-36 919.5,-36 919.5,0 988.5,0 988.5,-36"/>
<text text-anchor="middle" x="954" y="-14.3" font-family="Times New Roman,serif" font-size="14.00">Shubham</text>
</g>
<!-- MuDh1972&#45;&gt;ShDh1960 -->
<g id="edge57" class="edge">
<title>MuDh1972&#45;&gt;ShDh1960</title>
<path fill="none" stroke="black" d="M984.11,-71.7C977.91,-60.85 969.95,-46.92 963.77,-36.1"/>
</g>
<!-- JiDh1960 -->
<g id="node59" class="node">
<title>JiDh1960</title>
<polygon fill="white" stroke="black" points="1061,-36 1007,-36 1007,0 1061,0 1061,-36"/>
<text text-anchor="middle" x="1034" y="-14.3" font-family="Times New Roman,serif" font-size="14.00">Jinil</text>
</g>
<!-- MuDh1972&#45;&gt;JiDh1960 -->
<g id="edge58" class="edge">
<title>MuDh1972&#45;&gt;JiDh1960</title>
<path fill="none" stroke="black" d="M1003.89,-71.7C1010.09,-60.85 1018.05,-46.92 1024.23,-36.1"/>
</g>
<!-- JiDh2000 -->
<g id="node61" class="node">
<title>JiDh2000</title>
<polygon fill="white" stroke="black" points="2104,-36 2050,-36 2050,0 2104,0 2104,-36"/>
<text text-anchor="middle" x="2077" y="-14.3" font-family="Times New Roman,serif" font-size="14.00">Jiyog</text>
</g>
<!-- GhDh1980&#45;&gt;JiDh2000 -->
<g id="edge60" class="edge">
<title>GhDh1980&#45;&gt;JiDh2000</title>
<path fill="none" stroke="black" d="M2077,-71.7C2077,-60.85 2077,-46.92 2077,-36.1"/>
</g>
<!-- MiDh2000 -->
<g id="node60" class="node">
<title>MiDh2000</title>
<polygon fill="white" stroke="black" points="2202,-36 2148,-36 2148,0 2202,0 2202,-36"/>
<text text-anchor="middle" x="2175" y="-14.3" font-family="Times New Roman,serif" font-size="14.00">Meer</text>
</g>
<!-- ChDh1980&#45;&gt;MiDh2000 -->
<g id="edge59" class="edge">
<title>ChDh1980&#45;&gt;MiDh2000</title>
<path fill="none" stroke="black" d="M2175,-71.7C2175,-60.85 2175,-46.92 2175,-36.1"/>
</g>
<!-- MeDh2000 -->
<g id="node62" class="node">
<title>MeDh2000</title>
<polygon fill="white" stroke="black" points="2280,-36 2226,-36 2226,0 2280,0 2280,-36"/>
<text text-anchor="middle" x="2253" y="-14.3" font-family="Times New Roman,serif" font-size="14.00">Meet</text>
</g>
<!-- JaDh1980&#45;&gt;MeDh2000 -->
<g id="edge61" class="edge">
<title>JaDh1980&#45;&gt;MeDh2000</title>
<path fill="none" stroke="black" d="M2257.52,-71.7C2256.59,-60.85 2255.39,-46.92 2254.47,-36.1"/>
</g>
<!-- RiDh2000 -->
<g id="node63" class="node">
<title>RiDh2000</title>
<polygon fill="white" stroke="black" points="2352,-36 2298,-36 2298,0 2352,0 2352,-36"/>
<text text-anchor="middle" x="2325" y="-14.3" font-family="Times New Roman,serif" font-size="14.00">Rishi</text>
</g>
<!-- JaDh1980&#45;&gt;RiDh2000 -->
<g id="edge62" class="edge">
<title>JaDh1980&#45;&gt;RiDh2000</title>
<path fill="none" stroke="black" d="M2275.31,-71.7C2285.54,-60.85 2298.68,-46.92 2308.87,-36.1"/>
</g>
</g>
</svg>
